<?xml version="1.0" encoding="UTF-8"?>
<svg id="Capa_3" data-name="Capa 3" xmlns="http://www.w3.org/2000/svg" viewBox="0 0 500 393.43">
  <defs>
    <style>
      .cls-1 {
        fill: #fff;
        stroke: #000;
        stroke-miterlimit: 10;
        stroke-width: 2px;
      }
    </style>
  </defs>
  <path d="M403.38,125.52c-24.9-28.16-50.74-59.35-59.42-94.05-14.55,7.05-28.56,21.91-33.67,34.25-9.19,25.39-2.52,45.14,14.77,67.81-.8-7.74-1-18.05,1.05-29.52,0,0,9.62,17.29,27.67,29.63,0,0-4.93-19.5-4.22-35.05,0,0,18.97,20.08,53.82,26.93Z"/>
  <path d="M153.49,210.91c12.21-14.88,24.66-27.94,36.73-40.57,35.1-36.75,56.16-60.83,50.81-92.33-23.61,55.65-179.47,63.06-166.55,192.57,3.46-10.62,8.5-20.82,14.57-30.19-8.9,49.85,18.97,109.43,54.89,121.52-10.4-11.92-17.52-25.84-21.11-41.44-8.08-35.3,3.37-76.27,30.66-109.56Z"/>
  <path d="M123.63,83.78c-1.99-8.08-3-15.44-3.35-20.17,0,0-6.82,4.79-14.6,14.48,.8,4.91,1.81,9.58,3.05,13.85,5.28-3.23,10.26-5.93,14.9-8.16Z"/>
  <path class="cls-1" d="M232.06,304.24l-10.37-10.34,24.26-24.26c11.59-11.62,11.59-30.44,0-42.04l-6.18-6.18-45.25,45.25-27.2,27.22,46.22,46.2s0,0,0,0l24.8,24.8c.49,.46,.95,.94,1.43,1.43l6.18-6.18c11.59-11.59,11.59-30.42,0-42.04l-13.89-13.87Z"/>
  <path class="cls-1" d="M334.48,248.01l-25.16-25.16c-.49-.46-.94-.95-1.43-1.43l-6.18,6.18c-11.59,11.59-11.59,30.42,0,42.04l13.89,13.87,10.37,10.34h0l-24.26,24.26c-11.59,11.62-11.59,30.44,0,42.04l6.18,6.18,45.25-45.25,27.2-27.22-45.86-45.84Z"/>
  <path class="cls-1" d="M446.65,157.87c-33.47-42.57-87.94-88.45-93.63-141.56-22.96,3.95-46.19,27.16-53.58,45.21-9.84,26.93-4.04,48.76,9.73,69.84,.04,.04,.07,.07,.09,.11,9.13,13.96,21.77,27.61,35.67,42.2l67.69,97.05c10.77,42.1-2.6,86.22-53.38,109.73,132.88-26.42,150.1-142.88,87.4-222.58Zm-92.87-24.23c-18.05-12.34-27.67-29.63-27.67-29.63-2.05,11.47-1.85,21.78-1.05,29.52-17.29-22.67-23.97-42.42-14.77-67.81,5.11-12.34,19.12-27.2,33.67-34.25,8.68,34.7,34.52,65.89,59.42,94.05-34.85-6.85-53.82-26.93-53.82-26.93-.71,15.55,4.22,35.05,4.22,35.05Z"/>
  <path class="cls-1" d="M162.46,218.25c49.51-60.36,108.56-95.24,86.09-156.73-23.79,11.98-42.64,18.81-66.23,22.8-11.2-2.72-18.32-9.15-25.08-9.62-5.6-.36-14.39,1.05-25.75,5.62-.14,.05-.28,.12-.41,.17-2.81-13.53-3.85-26.03-3.98-33.74,0,0-10.13,6.01-22.78,20.59-.2-2.15-.38-4.31-.51-6.5-.58-9.26-.49-18.83,.31-27.89-47.66,33.67-37.73,78.97-53.17,98.52C-7.95,206.07,14.59,376.57,183.24,380.38c1.81,.04,3.66,.07,5.51,.07-73.12-33.85-68.68-110.43-26.29-162.2ZM120.28,63.61c.35,4.72,1.36,12.09,3.35,20.17-4.64,2.22-9.63,4.93-14.9,8.16-1.23-4.27-2.24-8.93-3.05-13.85,7.77-9.69,14.6-14.48,14.6-14.48Zm-31.23,176.78c-6.07,9.37-11.11,19.57-14.57,30.19-12.92-129.51,142.94-136.92,166.55-192.57,5.36,31.51-15.71,55.58-50.81,92.33-12.07,12.63-24.52,25.68-36.73,40.57-27.29,33.29-38.74,74.26-30.66,109.56,3.59,15.6,10.71,29.52,21.11,41.44-35.93-12.09-63.8-71.67-54.89-121.52Z"/>
</svg>