<?xml version="1.0" encoding="UTF-8"?>
<svg id="Capa_1" data-name="Capa 1" xmlns="http://www.w3.org/2000/svg" viewBox="0 0 143.72 64.24">
  <defs>
    <style>
      .cls-1 {
        letter-spacing: 0em;
      }

      .cls-2 {
        letter-spacing: 0em;
      }

      .cls-3 {
        letter-spacing: -.02em;
      }

      .cls-4 {
        fill: #29285e;
      }

      .cls-5 {
        letter-spacing: -.01em;
      }

      .cls-6 {
        letter-spacing: 0em;
      }

      .cls-7 {
        fill: #f9b213;
      }

      .cls-8 {
        fill: #40266a;
        font-family: Montserrat-Medium, Montserrat;
        font-size: 5.15px;
        font-weight: 500;
      }

      .cls-9 {
        fill: #541014;
      }
    </style>
  </defs>
  <g>
    <path class="cls-9" d="M27.89,19.16v.45s.15,.13,.13,.23c-.02,.1,0,.85,0,.85l-.15,.15c0,6.24-.17,8.07,.57,9.31,.26,.43,1.36,1.57,1.82,2.28,.7,1.07,1.05,2.36,1.05,4.57v24.49s.4,2.44-2.86,2.75h-4.89c-3.26-.3-2.86-2.75-2.86-2.75v-24.49c0-2.21,.35-3.5,1.05-4.57,.46-.71,1.57-1.85,1.82-2.28,.59-.99,.57-2.88,.57-2.88v-6.43l-.15-.15s.02-.75,0-.85c-.02-.1,.13-.23,.13-.23v-.45c.09-.74,3.66-.74,3.75,0Z"/>
    <path class="cls-7" d="M25.97,11.91c2-1.6,4.91-4.8,2.25-8.45-.97-1.33-1.7-2.47-2.25-3.47-.55,.99-1.28,2.14-2.25,3.47-2.67,3.65,.24,6.85,2.25,8.45Z"/>
    <path class="cls-7" d="M40.56,9.59c-1.25,.25-2.83,.43-4.85,.5-4.79,.16-5.32,4.94-5.27,7.42,2.39,.65,7.16,1.29,8.47-3.32,.55-1.95,1.11-3.44,1.65-4.59Z"/>
    <path class="cls-7" d="M11.37,30.46c1.25-.25,2.83-.43,4.85-.5,4.79-.16,5.32-4.94,5.27-7.42-2.39-.65-7.16-1.29-8.47,3.32-.55,1.95-1.11,3.44-1.65,4.59Z"/>
    <path class="cls-7" d="M40.56,30.46c-1.25-.25-2.83-.43-4.85-.5-4.79-.16-5.32-4.94-5.27-7.42,2.39-.65,7.16-1.29,8.47,3.32,.55,1.95,1.11,3.44,1.65,4.59Z"/>
    <path class="cls-7" d="M11.37,9.59c1.25,.25,2.83,.43,4.85,.5,4.79,.16,5.32,4.94,5.27,7.42-2.39,.65-7.16,1.29-8.47-3.32-.55-1.95-1.11-3.44-1.65-4.59Z"/>
    <path class="cls-4" d="M51.93,11.73c-.94-.01-2.1-.09-3.55-.27-3.43-.43-4.81,1.86-5.29,3.08,1.56,.57,4.81,1.38,6.71-.74,.8-.89,1.51-1.57,2.14-2.07Z"/>
    <path class="cls-4" d="M0,28.32c.94,.01,2.1,.09,3.55,.27,3.43,.43,4.81-1.86,5.29-3.08-1.56-.57-4.81-1.38-6.71,.74-.8,.89-1.51,1.57-2.14,2.07Z"/>
    <path class="cls-4" d="M51.93,28.32c-.94,.01-2.1,.09-3.55,.27-3.43,.43-4.81-1.86-5.29-3.08,1.56-.57,4.81-1.38,6.71,.74,.8,.89,1.51,1.57,2.14,2.07Z"/>
    <path class="cls-4" d="M0,11.73c.94-.01,2.1-.09,3.55-.27,3.43-.43,4.81,1.86,5.29,3.08-1.56,.57-4.81,1.38-6.71-.74-.8-.89-1.51-1.57-2.14-2.07Z"/>
    <path class="cls-4" d="M45.65,1.92c-.5,.24-1.14,.51-1.96,.8-1.94,.68-2.07,2.26-2.01,3.04,.98-.11,2.93-.53,3.38-2.17,.19-.69,.39-1.24,.59-1.67Z"/>
    <path class="cls-4" d="M6.29,38.12c.5-.24,1.14-.51,1.96-.8,1.94-.68,2.07-2.26,2.01-3.04-.98,.11-2.93,.53-3.38,2.17-.19,.69-.39,1.24-.59,1.67Z"/>
    <path class="cls-4" d="M45.65,38.12c-.5-.24-1.14-.51-1.96-.8-1.94-.68-2.07-2.26-2.01-3.04,.98,.11,2.93,.53,3.38,2.17,.19,.69,.39,1.24,.59,1.67Z"/>
    <path class="cls-4" d="M6.29,1.92c.5,.24,1.14,.51,1.96,.8,1.94,.68,2.07,2.26,2.01,3.04-.98-.11-2.93-.53-3.38-2.17-.19-.69-.39-1.24-.59-1.67Z"/>
    <path class="cls-9" d="M33.2,8.45c.62-.51,1.39-1.01,2.34-1.47,2.96-1.44,3.61-4.44,3.63-6.74-2.18,.73-4.84,2.27-5.29,5.53-.14,1.04-.38,1.93-.68,2.68Z"/>
    <path class="cls-9" d="M18.74,31.6c-.62,.51-1.39,1.01-2.34,1.47-2.96,1.44-3.61,4.44-3.63,6.74,2.18-.73,4.84-2.27,5.29-5.53,.14-1.04,.38-1.93,.68-2.68Z"/>
    <path class="cls-9" d="M33.2,31.6c.62,.51,1.39,1.01,2.34,1.47,2.96,1.44,3.61,4.44,3.63,6.74-2.18-.73-4.84-2.27-5.29-5.53-.14-1.04-.38-1.93-.68-2.68Z"/>
    <path class="cls-9" d="M18.74,8.45c-.62-.51-1.39-1.01-2.34-1.47-2.96-1.44-3.61-4.44-3.63-6.74,2.18,.73,4.84,2.27,5.29,5.53,.14,1.04,.38,1.93,.68,2.68Z"/>
    <path class="cls-9" d="M48.96,20.02s0,0,0,0c-1.9-1.3-4.73-2.49-7.6-.88-.69,.39-1.34,.68-1.96,.89,.61,.21,1.26,.5,1.96,.89,2.87,1.6,5.71,.42,7.6-.88,0,0,0,0,0,0Z"/>
    <path class="cls-9" d="M2.97,20.02s0,0,0,0c1.9,1.3,4.73,2.49,7.6,.88,.69-.39,1.34-.68,1.96-.89-.61-.21-1.26-.5-1.96-.89-2.87-1.6-5.71-.42-7.6,.88,0,0,0,0,0,0Z"/>
  </g>
  <g>
    <g>
      <path class="cls-4" d="M62.66,45.14c-.71,0-1.35-.3-1.93-.89s-.87-1.32-.87-2.18c0-.6,.12-1.21,.37-1.84,.25-.63,.63-1.24,1.15-1.85,.52-.6,1.13-1.15,1.84-1.62,.71-.48,1.58-.86,2.6-1.16,1.02-.29,2.11-.44,3.27-.44,.7,0,1.37,.08,2.03,.23s1.28,.41,1.88,.77,1.12,.79,1.57,1.3,.81,1.15,1.07,1.92c.27,.77,.4,1.62,.4,2.56,0,1.29-.2,2.48-.59,3.55-.39,1.07-.91,1.94-1.56,2.61-.65,.67-1.38,1.19-2.2,1.56-.82,.37-1.68,.55-2.58,.55-.72,0-1.31-.16-1.76-.48-.45-.32-.67-.63-.67-.94,0-.1,.02-.18,.06-.25s.09-.1,.15-.1c.01,0,.08,.06,.21,.17,.12,.11,.33,.22,.61,.33,.28,.11,.61,.16,1,.16,.68,0,1.34-.19,1.98-.57,.64-.38,1.2-.9,1.68-1.56s.87-1.47,1.17-2.43c.29-.96,.44-1.98,.44-3.06,0-1.87-.42-3.25-1.26-4.16-.84-.9-2-1.35-3.48-1.35-.95,0-1.83,.14-2.64,.42-.82,.28-1.5,.64-2.05,1.08-.55,.44-1.03,.94-1.43,1.48s-.69,1.09-.87,1.63c-.18,.54-.27,1.05-.27,1.52s.1,.85,.32,1.13,.51,.42,.9,.42c.51,0,.97-.22,1.38-.66,.41-.44,.62-.85,.62-1.22,0-.12,.08-.14,.24-.04,.24,.12,.35,.33,.35,.62,0,.6-.3,1.21-.91,1.84-.6,.63-1.34,.94-2.19,.94Zm9.52-7.41c-.42,0-.84,.23-1.26,.68s-.8,1.04-1.15,1.76c-.35,.72-.7,1.53-1.05,2.41-.35,.88-.72,1.76-1.1,2.64s-.77,1.68-1.18,2.41c-.4,.73-.86,1.32-1.37,1.77-.51,.45-1.05,.68-1.61,.68-.49,0-.91-.19-1.26-.58s-.53-.77-.53-1.14c0-.15,.02-.27,.07-.37,.04-.1,.1-.15,.16-.15,.01,0,.06,.03,.13,.09s.16,.09,.24,.09c.25,0,.48-.03,.69-.09,.21-.06,.47-.21,.77-.45,.3-.24,.6-.56,.91-.97s.68-.99,1.09-1.74c.42-.75,.86-1.64,1.34-2.67,.77-1.71,1.54-2.94,2.3-3.71,.76-.77,1.54-1.15,2.33-1.15,.29,0,.47,.1,.54,.3,.05,.11,.03,.17-.06,.17Z"/>
      <path class="cls-4" d="M82.36,43.24c0,.56-.26,1.07-.77,1.53-.51,.46-1.08,.8-1.72,1.03s-1.23,.35-1.77,.37c-.05,.22-.07,.44-.07,.65,0,.36,.07,.66,.22,.89,.15,.23,.38,.34,.69,.34,.22,0,.47-.03,.74-.1s.59-.19,.96-.37c.37-.18,.77-.47,1.19-.88,.42-.41,.81-.89,1.17-1.47,.03-.05,.06-.06,.09-.02l.37,.43s.03,.07,0,.11c-.39,.62-.78,1.16-1.19,1.61s-.77,.78-1.08,1.01c-.32,.22-.66,.4-1.03,.53-.37,.13-.66,.21-.87,.23-.21,.02-.46,.04-.75,.04-.73,0-1.29-.24-1.65-.72s-.55-1.09-.55-1.82c0-.68,.2-1.39,.6-2.11,.4-.72,.94-1.33,1.62-1.81,.68-.49,1.37-.73,2.08-.73,.53,0,.96,.1,1.26,.31,.31,.21,.46,.52,.46,.94Zm-1.57-.54c-.4,0-.85,.28-1.35,.84-.5,.56-.88,1.21-1.16,1.94,1.15-.3,1.97-.87,2.47-1.7,.3-.49,.37-.83,.21-1.03-.04-.04-.09-.06-.17-.06Z"/>
      <path class="cls-4" d="M87.44,49.03c-.39,0-.71-.16-.98-.47-.27-.31-.4-.68-.4-1.1,0-.49,.17-1.15,.52-1.99,.35-.84,1.46-3.28,3.34-7.31,.04-.09,.1-.13,.19-.13h1.49s.07,.02,.08,.06,.02,.07,0,.09c-1.93,4.13-3.08,6.63-3.45,7.49-.37,.86-.55,1.49-.55,1.9,0,.22,.09,.34,.26,.34,.29,0,.62-.21,1.01-.63,.39-.42,.88-1.1,1.49-2.06,.04-.04,.07-.04,.09,0,.04,.04,.17,.18,.39,.43,.04,.04,.04,.07,.02,.11-.46,.76-.85,1.36-1.18,1.8-.32,.44-.62,.77-.9,.98-.27,.21-.51,.35-.7,.4-.19,.06-.45,.08-.76,.08Z"/>
      <path class="cls-4" d="M98.72,45.65s.04,.07,.02,.11c-.46,.75-.86,1.35-1.2,1.8s-.64,.78-.92,.99c-.28,.21-.52,.34-.71,.39-.19,.06-.43,.08-.7,.08-.4,0-.73-.14-1-.41-.27-.27-.4-.62-.4-1.03v-.04c-.71,.98-1.43,1.47-2.17,1.47-.52,0-.93-.19-1.21-.56-.29-.37-.43-.87-.43-1.49,0-.49,.11-1.01,.33-1.58,.22-.57,.5-1.1,.86-1.6s.8-.91,1.34-1.24c.53-.33,1.08-.5,1.64-.5,.72,0,1.18,.29,1.38,.86,.01-.03,.05-.11,.11-.26,.04-.07,.1-.11,.19-.11h1.49s.07,.02,.08,.05c.02,.03,.02,.07,0,.1-.87,1.87-1.42,3.09-1.63,3.68-.22,.59-.33,1.03-.33,1.35,0,.22,.09,.34,.26,.34,.19,0,.51-.25,.97-.76s.97-1.2,1.53-2.08c.04-.04,.07-.04,.09,0,.19,.2,.32,.34,.39,.43Zm-3.75-1.48c.04-.42,0-.77-.13-1.03-.12-.26-.3-.39-.52-.39-.39,0-.79,.26-1.21,.78s-.77,1.13-1.03,1.81-.39,1.27-.39,1.76c0,.22,.05,.4,.14,.53,.09,.13,.21,.2,.34,.2,.56,0,1.31-.78,2.24-2.35,.14-.36,.32-.8,.56-1.31Z"/>
      <path class="cls-4" d="M105.35,45.14c-.71,0-1.35-.3-1.92-.89-.57-.59-.86-1.32-.86-2.18,0-.73,.21-1.49,.62-2.28s.97-1.51,1.67-2.17c.7-.66,1.58-1.2,2.63-1.62,1.05-.42,2.16-.64,3.32-.64,.77,0,1.39,.19,1.86,.57s.7,.91,.7,1.6c0,.47-.16,1.19-.48,2.15-.32,.96-.67,1.91-1.06,2.84s-.74,1.92-1.05,2.96-.48,1.86-.48,2.47c0,.27,.05,.49,.15,.64,.1,.15,.22,.22,.37,.22,.72,0,1.49-.37,2.32-1.11s1.56-1.65,2.2-2.73c.65-1.08,1.19-2.25,1.62-3.53,.44-1.28,.65-2.42,.65-3.43,0-.39-.03-.71-.1-.98s-.14-.45-.21-.53c-.08-.09-.15-.16-.22-.22-.07-.06-.1-.12-.1-.17,0-.1,.07-.19,.22-.27,.15-.08,.32-.12,.5-.12,.21,0,.42,.03,.63,.09,.21,.06,.41,.16,.61,.29s.36,.33,.49,.61c.12,.27,.19,.6,.19,.97,0,.73-.12,1.56-.35,2.47-.24,.91-.56,1.83-.97,2.75-.41,.93-.92,1.83-1.52,2.71s-1.25,1.66-1.92,2.34c-.68,.69-1.43,1.23-2.25,1.64-.82,.41-1.64,.62-2.45,.62-.55,0-1.03-.19-1.46-.58-.42-.39-.64-.98-.64-1.77,0-.71,.19-1.63,.58-2.75,.39-1.12,.81-2.16,1.27-3.11,.46-.95,.88-1.9,1.27-2.83,.39-.93,.58-1.6,.58-2,0-.34-.1-.58-.31-.73-.21-.15-.55-.22-1.04-.22-.93,0-1.85,.31-2.76,.92s-1.64,1.38-2.19,2.3-.82,1.8-.82,2.66c0,.47,.11,.85,.32,1.13,.21,.28,.51,.42,.9,.42,.51,0,.97-.22,1.38-.66,.41-.44,.62-.85,.62-1.22,0-.12,.08-.14,.24-.04,.24,.12,.35,.33,.35,.62,0,.6-.3,1.21-.91,1.84-.6,.63-1.33,.94-2.19,.94Z"/>
      <path class="cls-4" d="M119.23,49.03c-.39,0-.71-.14-.98-.41-.27-.27-.4-.62-.4-1.03,0-.39,.11-.88,.33-1.48,.22-.6,.78-1.87,1.67-3.8,.04-.07,.1-.11,.19-.11h1.49s.07,.02,.08,.05c.02,.03,.02,.07,0,.1-.95,2.03-1.54,3.36-1.77,3.98-.24,.62-.35,1.09-.35,1.4,0,.22,.09,.34,.26,.34,.2,0,.54-.25,1.02-.77,.48-.51,1-1.2,1.56-2.07,.04-.04,.07-.04,.09,0,.04,.04,.17,.18,.39,.43,.04,.04,.04,.07,.02,.11-.46,.75-.86,1.35-1.2,1.8s-.66,.78-.95,.99c-.29,.21-.54,.34-.73,.39-.19,.06-.43,.08-.72,.08Zm1.47-8.55c.05-.27,.19-.52,.41-.75s.47-.36,.74-.4c.27-.04,.48,.01,.64,.17,.16,.16,.22,.37,.17,.64-.05,.27-.19,.52-.41,.75s-.47,.36-.74,.4c-.27,.04-.48-.01-.64-.17-.16-.16-.22-.37-.17-.64Z"/>
      <path class="cls-4" d="M126.04,42.06c.73,0,1.2,.3,1.38,.9,.35-.76,1.1-2.36,2.24-4.8,.04-.07,.1-.11,.19-.11h1.48s.07,.02,.08,.05c.02,.03,.02,.06,0,.08-1.93,4.13-3.08,6.63-3.45,7.49-.37,.86-.55,1.49-.55,1.9,0,.22,.09,.34,.28,.34,.29,0,.62-.21,1-.63,.38-.42,.88-1.1,1.5-2.06,.02-.04,.06-.04,.09,0,.04,.04,.1,.11,.2,.21,.09,.11,.16,.18,.2,.22,.03,.04,.03,.07,0,.11-.46,.76-.85,1.36-1.18,1.8-.32,.44-.62,.77-.9,.98-.27,.21-.51,.35-.7,.4-.19,.06-.45,.08-.76,.08-.39,0-.71-.16-.98-.47-.27-.31-.4-.68-.4-1.1v-.02c-.75,1.06-1.5,1.59-2.26,1.59-.52,0-.93-.19-1.21-.56-.29-.37-.43-.87-.43-1.49,0-.49,.11-1.01,.33-1.58,.22-.57,.5-1.1,.86-1.6s.8-.91,1.34-1.24,1.08-.5,1.64-.5Zm.8,2.19c.05-.45,.01-.81-.11-1.08-.12-.27-.31-.41-.54-.41-.39,0-.79,.26-1.21,.78s-.77,1.13-1.03,1.81-.39,1.27-.39,1.76c0,.22,.05,.4,.14,.53s.21,.2,.35,.2c.3,0,.65-.23,1.06-.7,.41-.47,.84-1.09,1.29-1.86,.11-.29,.26-.63,.45-1.03Z"/>
    </g>
    <rect class="cls-7" x="49.58" y="31.6" width="94.14" height=".59"/>
    <rect class="cls-7" x="48.57" y="54.18" width="94.14" height=".59"/>
    <text class="cls-8" transform="translate(50.41 62.53)"><tspan class="cls-1" x="0" y="0">c</tspan><tspan class="cls-6" x="2.9" y="0">ontigo en tus </tspan><tspan class="cls-2" x="39.11" y="0">m</tspan><tspan x="44.58" y="0">ejo</tspan><tspan class="cls-5" x="52.47" y="0">r</tspan><tspan x="54.52" y="0">es </tspan><tspan class="cls-2" x="61.64" y="0">m</tspan><tspan class="cls-6" x="67.1" y="0">o</tspan><tspan class="cls-2" x="70.38" y="0">m</tspan><tspan x="75.84" y="0">en</tspan><tspan class="cls-3" x="82.5" y="0">t</tspan><tspan x="84.54" y="0">os</tspan></text>
  </g>
</svg>