<?xml version="1.0" encoding="UTF-8"?>
<svg id="Layer_1" data-name="Layer 1" xmlns="http://www.w3.org/2000/svg" viewBox="0 0 294.31 56.57">
  <defs>
    <style>
      .cls-1 {
        fill: #03a5ff;
      }

      .cls-2 {
        fill: #0056ff;
      }
    </style>
  </defs>
  <g>
    <path class="cls-2" d="M20.21-1.79h0c2.71,0,4.91,2.2,4.91,4.91V51.77c0,3.62-2.94,6.55-6.55,6.55h0c-3.62,0-6.55-2.94-6.55-6.55V6.41C12.01,1.89,15.68-1.79,20.21-1.79Z" transform="translate(12.1 -4.93) rotate(22.27)"/>
    <path class="cls-2" d="M45.2,13.11H27.56c-3.62,0-6.55-2.93-6.55-6.55h0C21,2.93,23.94,0,27.56,0h30.75s0,0,0,0c-3.53,8.82-5.87,13.11-13.11,13.11Z"/>
    <path class="cls-2" d="M40.52,34.64c-3.93-1.62-8.43,.26-10.05,4.2s.26,8.43,4.2,10.05c.83,.34,1.69,.52,2.54,.56l5.51-13.42c-.64-.57-1.37-1.05-2.2-1.39Z"/>
    <path class="cls-2" d="M2.2,14.97c3.93,1.62,8.43-.26,10.05-4.2,1.62-3.93-.26-8.43-4.2-10.05-.83-.34-1.69-.52-2.54-.56L0,13.58c.64,.57,1.37,1.05,2.2,1.39Z"/>
    <path class="cls-1" d="M58.3,0c-20.08,4.19-26.44,13.1-26.44,13.1h13.34c7.23,0,9.57-4.28,13.1-13.1Z"/>
  </g>
  <g>
    <path class="cls-2" d="M90.04,17.82v31.52h-8.26V17.82h-9.42v-7h27.1v7h-9.42Z"/>
    <path class="cls-2" d="M125.95,49.34h-7.26l.11-3.71c-1.02,1.63-2.24,2.83-3.67,3.59-1.43,.76-3.17,1.14-5.22,1.14-3.42,0-6.18-1.27-8.27-3.81-2.1-2.54-3.14-5.9-3.14-10.08s1.03-7.74,3.09-10.17c2.06-2.43,4.92-3.64,8.59-3.64,1.91,0,3.59,.43,5.04,1.29,1.45,.86,2.66,2.14,3.64,3.84v-4.26h7.1v25.81Zm-6.84-12.94c0-2.32-.58-4.15-1.75-5.5-1.17-1.35-2.74-2.03-4.72-2.03s-3.63,.67-4.8,2.01c-1.17,1.34-1.75,3.18-1.75,5.51s.57,4.15,1.72,5.45c1.15,1.3,2.74,1.95,4.77,1.95s3.67-.65,4.81-1.95c1.14-1.3,1.71-3.11,1.71-5.45Z"/>
    <polygon class="cls-2" points="156.06 23.61 147.23 23.61 142.41 30.34 137.59 23.61 128.76 23.61 137.99 36.51 128.76 49.42 137.59 49.42 142.41 42.69 147.23 49.42 156.06 49.42 146.83 36.51 156.06 23.61"/>
    <g>
      <polygon class="cls-1" points="194.24 49.34 194.24 24.4 199.94 21.06 199.94 49.34 194.24 49.34"/>
      <path class="cls-1" d="M212.25,28.37c.61-1.65,1.42-2.87,2.43-3.66,1.01-.79,2.26-1.18,3.75-1.18,.81,0,1.6,.1,2.38,.29,.78,.19,1.55,.47,2.3,.84l-2.05,4.84c-.49-.35-1.02-.61-1.59-.78-.57-.17-1.21-.25-1.91-.25-1.89,0-3.25,.76-4.08,2.28-.82,1.52-1.24,4.06-1.24,7.64v10.94h-5.71V24.35h5.71v4.03Z"/>
      <path class="cls-1" d="M249.09,37.71h-19.94c.14,2.33,.83,4.15,2.08,5.46,1.25,1.31,2.9,1.96,4.97,1.96,1.84,0,3.38-.39,4.6-1.16,1.23-.77,2.3-2.02,3.21-3.74l4.81,2.68c-1.4,2.51-3.14,4.38-5.21,5.6-2.07,1.23-4.5,1.84-7.29,1.84-4,0-7.18-1.22-9.55-3.66-2.37-2.44-3.55-5.69-3.55-9.76s1.22-7.12,3.67-9.64c2.45-2.52,5.59-3.78,9.43-3.78s7.15,1.15,9.39,3.45c2.24,2.3,3.37,5.52,3.37,9.65v1.08Zm-5.92-3.84c-.23-1.79-.91-3.15-2.05-4.09-1.14-.94-2.7-1.41-4.68-1.41-1.88,0-3.38,.46-4.52,1.37-1.14,.91-1.94,2.29-2.39,4.13h13.65Z"/>
      <path class="cls-1" d="M272.9,31.5c-.88-.96-1.9-1.7-3.06-2.21-1.17-.51-2.42-.76-3.78-.76-2.33,0-4.2,.75-5.6,2.26-1.4,1.51-2.1,3.51-2.1,6s.71,4.63,2.12,6.12c1.41,1.48,3.36,2.22,5.85,2.22,1.38,0,2.62-.26,3.71-.78,1.09-.52,2.04-1.3,2.87-2.35v6.58c-1.05,.6-2.18,1.04-3.38,1.34-1.2,.3-2.48,.45-3.83,.45-3.91,0-7.1-1.25-9.56-3.74-2.46-2.49-3.7-5.72-3.7-9.68s1.28-7.26,3.83-9.72c2.55-2.46,5.89-3.7,10.01-3.7,1.3,0,2.49,.13,3.58,.38,1.09,.25,2.1,.64,3.05,1.17v6.42Z"/>
      <path class="cls-1" d="M279.88,49.34V29.4h-4.37v-5h4.37V14.96h5.71v9.44h4.37v5h-4.37v19.94h-5.71Z"/>
      <circle class="cls-1" cx="291.18" cy="46.21" r="3.13"/>
      <polygon class="cls-1" points="194.24 13.03 194.24 9.73 199.94 9.73 199.94 19.03 194.24 16.32 194.24 13.03"/>
    </g>
    <path class="cls-1" d="M157.52,49.34V10.9h8.43c5.48,0,9.33,.28,11.57,.83,2.23,.55,4.19,1.48,5.87,2.77,2.22,1.7,3.91,3.88,5.05,6.54s1.72,5.7,1.72,9.11-.57,6.44-1.72,9.07-2.83,4.81-5.05,6.53c-1.68,1.3-3.59,2.22-5.74,2.77s-5.48,.83-10.02,.83h-10.11Zm6.25-5.65h5.25c2.89,0,5.05-.19,6.5-.58,1.44-.38,2.7-1.03,3.77-1.94,1.45-1.24,2.54-2.79,3.27-4.63,.73-1.85,1.09-4,1.09-6.45s-.36-4.6-1.09-6.45c-.73-1.85-1.82-3.39-3.27-4.63-1.09-.91-2.39-1.56-3.9-1.94-1.51-.38-3.88-.58-7.1-.58h-4.52v27.21Z"/>
  </g>
</svg>