<?xml version="1.0" encoding="UTF-8"?>
<svg id="Layer_1" data-name="Layer 1" xmlns="http://www.w3.org/2000/svg" viewBox="0 0 194.5 31.64">
  <defs>
    <style>
      .cls-1 {
        fill: #1691cf;
      }

      .cls-2 {
        fill: #ebce1b;
      }
    </style>
  </defs>
  <g>
    <path class="cls-1" d="M108.89,12.08c-.89-.36-1.65-.68-2.01-.95-.45-.36-.73-.89-.74-1.39-.04-1.48,1.45-1.79,1.9-1.85,.19-.02,.39-.03,.61-.03,1.23,0,2.6,.34,3.61,.66,.13,.81,.83,1.44,1.68,1.44,.94,0,1.7-.76,1.7-1.7s-.76-1.7-1.7-1.7c-.41,0-.79,.15-1.09,.39-1.49-.5-2.8-.74-4.1-.74-.24,0-.48,0-.72,.02-.99,.04-1.9,.43-2.56,1.09-.68,.68-1.03,1.59-.99,2.58,.15,2.28,1.98,3.01,4.1,3.86,1.62,.65,3.46,1.38,5.11,2.93,1.77,1.62,2.18,3.53,2.21,4.85,.05,2.01-.75,4.05-2.14,5.46-1.52,1.52-3.73,2.32-6.41,2.32-2.5,0-5.33-.72-7.76-1.99-.5-.25-1.09,.04-1.22,.56-.09,.37,.07,.72,.41,.9,1.52,.76,3.08,1.32,4.63,1.66,1.32,.31,2.63,.47,3.89,.47,6.22,0,10.24-3.71,10.24-9.45s-5.42-8.06-8.65-9.39Z"/>
    <path class="cls-1" d="M135.42,23.65c-2.82,0-5.43-1.55-6.82-4.05-.21-.36-.71-.53-1.19-.29-.38,.23-.51,.77-.29,1.14,1.72,3.02,4.9,4.89,8.3,4.89,5.29,0,9.59-4.37,9.59-9.74s-4.3-9.7-9.59-9.7c-2.94,0-5.71,1.38-7.51,3.69-.04,0-.09,0-.13,0-.94,0-1.7,.76-1.7,1.7s.76,1.7,1.7,1.7,1.7-.76,1.7-1.7c0-.26-.06-.51-.17-.74,1.47-1.87,3.71-2.99,6.11-2.99,4.35,0,7.88,3.61,7.88,8.04s-3.54,8.04-7.88,8.04Z"/>
    <path class="cls-1" d="M99.86,23.75c.29,0,.57-.07,.81-.21,1.92,1.07,4.24,1.67,6.54,1.67,.26,0,.52,0,.78-.02,1.03-.07,1.98-.45,2.69-1.09,.77-.69,1.15-1.62,1.09-2.61-.15-2.37-2.05-3.11-4.24-3.97-1.55-.61-3.31-1.29-4.89-2.67-1.74-1.55-2.17-3.44-2.23-4.74-.1-2.05,.66-4.15,2.02-5.62,1.47-1.6,3.48-2.41,5.98-2.41,1.73,0,3.73,.39,5.92,1.14,.49,.21,1.03-.1,1.12-.63,.07-.4-.14-.77-.53-.91-1.67-.57-3.14-.94-4.5-1.13-.64-.09-1.27-.13-1.89-.13-5.85,0-9.78,3.82-9.78,9.51s5.07,7.85,8.42,9.19c1.02,.41,1.9,.76,2.31,1.1,.41,.37,.64,.89,.65,1.41,0,.32-.09,.79-.53,1.19-.53,.49-1.39,.75-2.5,.75-1.84,0-3.95-.67-5.52-1.48,0-.01,0-.03,0-.04,0-.94-.76-1.7-1.7-1.7s-1.7,.76-1.7,1.7,.76,1.7,1.7,1.7Z"/>
    <path class="cls-1" d="M170.27,18.56c-.61,0-1.15,.33-1.45,.81h-7.15c-.49,0-.85,.37-.85,.85v9.7c0,.47,.37,.82,.85,.82s.85-.35,.85-.82v-8.85h6.25c.29,.53,.85,.89,1.5,.89,.94,0,1.7-.76,1.7-1.7s-.76-1.7-1.7-1.7Z"/>
    <path class="cls-1" d="M180.71,28.46V7.11c0-.45-.36-.81-.81-.81h-18.27c-.38,0-.7,.27-.79,.63,0,0,0,.01,0,.02-.01,.05-.02,.11-.02,.16v7.41c0,.47,.38,.85,.85,.85h8.55c.25,0,.47-.1,.62-.28,.13-.15,.2-.36,.2-.57,0-.49-.35-.85-.82-.85h-7.7v-5.66h16.53V28.46c-.52,.29-.87,.85-.87,1.48,0,.94,.76,1.7,1.7,1.7s1.7-.76,1.7-1.7c0-.64-.35-1.19-.87-1.48Z"/>
    <path class="cls-1" d="M156.81,28.47V2.26h36.84c.48,0,.85-.36,.85-.81s-.37-.81-.85-.81h-22.68c-.08-.02-.16-.04-.25-.04h-14.75c-.45,0-.85,.38-.85,.81V28.47c-.51,.29-.85,.84-.85,1.47,0,.94,.76,1.7,1.7,1.7s1.7-.76,1.7-1.7c0-.63-.34-1.18-.85-1.47Z"/>
    <path class="cls-1" d="M149.74,18.26c-.94,0-1.7,.76-1.7,1.7,0,.42,.15,.8,.4,1.09-2.19,5.13-7.26,8.49-13.01,8.49-8.21,0-13.94-5.73-13.94-13.94s5.73-13.9,13.94-13.9c6.21,0,11.62,3.9,13.48,9.7,.13,.46,.57,.71,1.04,.58,.2-.04,.38-.17,.5-.37,.13-.22,.17-.49,.09-.71-2.06-6.42-8.27-10.91-15.11-10.91-9.04,0-15.61,6.56-15.61,15.61s6.56,15.65,15.61,15.65c6.37,0,12.19-3.89,14.61-9.61,.8-.14,1.4-.84,1.4-1.68,0-.94-.76-1.7-1.7-1.7Z"/>
  </g>
  <path class="cls-2" d="M21.24,.72H1.15c-.4,0-.69,.14-.87,.43-.19,.28-.28,.75-.28,1.41v1.07c0,.65,.09,1.12,.28,1.41,.19,.28,.48,.43,.87,.43h7.29V29.48c0,.8,.74,1.19,2.22,1.19h1.11c1.48,0,2.22-.4,2.22-1.19V5.46h7.25c.4,0,.69-.14,.87-.43,.18-.28,.28-.75,.28-1.41v-1.07c0-.65-.09-1.12-.28-1.41-.19-.28-.48-.43-.87-.43Z"/>
  <path class="cls-2" d="M80.48,.64h-1.92c-1.22,0-2.02,.34-2.39,1.02l-7.51,13.22-.64,1.32-.64-1.37L59.92,1.66c-.4-.68-1.19-1.02-2.39-1.02h-2c-1.48,0-2.22,.4-2.22,1.19V29.48c0,.8,.74,1.19,2.22,1.19h.9c1.51,0,2.26-.4,2.26-1.19V9.77l.13,.04,7.08,12.5c.34,.48,.82,.73,1.45,.73h1.41c.6,0,1.07-.24,1.41-.73l7.04-12.41h.13V29.48c0,.8,.75,1.19,2.26,1.19h.9c1.48,0,2.22-.4,2.22-1.19V1.83c0-.8-.74-1.19-2.22-1.19Z"/>
  <path class="cls-2" d="M91.33,.6h-1.07c-1.51,0-2.26,.41-2.26,1.24V29.48c0,.83,.75,1.24,2.26,1.24h1.07c1.51,0,2.26-.41,2.26-1.24V1.83c0-.82-.75-1.24-2.26-1.24Z"/>
  <path class="cls-2" d="M49.1,1.83c0-.82-.75-1.24-2.26-1.24h-1.07c-1.51,0-2.26,.41-2.26,1.24V19.66h0c0,3.71-2.4,6.11-6.11,6.11s-6.11-2.4-6.11-6.11h0V1.83c0-.82-.75-1.24-2.26-1.24h-1.07c-1.51,0-2.26,.41-2.26,1.24V19.66s0,0,0,0c0,6.8,4.9,11.7,11.7,11.7s11.7-4.9,11.7-11.7h0V1.83Z"/>
</svg>